<svg width="20" height="20" viewBox="0 0 20 20" fill="none" xmlns="http://www.w3.org/2000/svg">
<path fill-rule="evenodd" clip-rule="evenodd" d="M6.49408 6.49408C6.81951 6.16864 7.34715 6.16864 7.67259 6.49408L10 8.82149L12.3274 6.49408C12.6528 6.16864 13.1805 6.16864 13.5059 6.49408C13.8314 6.81951 13.8314 7.34715 13.5059 7.67259L11.1785 10L13.5059 12.3274C13.8314 12.6528 13.8314 13.1805 13.5059 13.5059C13.1805 13.8314 12.6528 13.8314 12.3274 13.5059L10 11.1785L7.67259 13.5059C7.34715 13.8314 6.81951 13.8314 6.49408 13.5059C6.16864 13.1805 6.16864 12.6528 6.49408 12.3274L8.82149 10L6.49408 7.67259C6.16864 7.34715 6.16864 6.81951 6.49408 6.49408Z" fill="#B7B7B7"/>
</svg>
