<svg width="19" height="18" viewBox="0 0 19 18" fill="none" xmlns="http://www.w3.org/2000/svg">
<path d="M5.10551 1.47432C5.3397 0.50856 6.71323 0.508559 6.94741 1.47432L7.59178 4.13168C7.67539 4.47648 7.94461 4.7457 8.28941 4.82931L10.9468 5.47368C11.9125 5.70786 11.9125 7.08139 10.9468 7.31557L8.28941 7.95994C7.94461 8.04355 7.67539 8.31277 7.59178 8.65758L6.94741 11.3149C6.71323 12.2807 5.3397 12.2807 5.10551 11.3149L4.46114 8.65758C4.37753 8.31277 4.10832 8.04355 3.76351 7.95994L1.10616 7.31557C0.140396 7.08139 0.140395 5.70786 1.10616 5.47368L3.76351 4.82931C4.10832 4.7457 4.37753 4.47648 4.46114 4.13168L5.10551 1.47432Z" fill="white"/>
<path d="M12.8412 10.7482C12.9853 10.1539 13.8305 10.1539 13.9746 10.7482L14.3712 12.3835C14.4226 12.5957 14.5883 12.7613 14.8005 12.8128L16.4358 13.2093C17.0301 13.3534 17.0301 14.1987 16.4358 14.3428L14.8005 14.7393C14.5883 14.7908 14.4226 14.9565 14.3712 15.1686L13.9746 16.8039C13.8305 17.3983 12.9853 17.3983 12.8412 16.8039L12.4446 15.1686C12.3932 14.9565 12.2275 14.7908 12.0153 14.7393L10.38 14.3428C9.7857 14.1987 9.7857 13.3534 10.38 13.2093L12.0153 12.8128C12.2275 12.7613 12.3932 12.5957 12.4446 12.3835L12.8412 10.7482Z" fill="white"/>
<path d="M15.6412 1.36817C15.7358 0.978147 16.2905 0.978147 16.385 1.36817L16.6453 2.44133C16.679 2.58058 16.7877 2.6893 16.927 2.72306L18.0002 2.98329C18.3902 3.07786 18.3902 3.63256 18.0002 3.72713L16.927 3.98736C16.7877 4.02113 16.679 4.12985 16.6453 4.2691L16.385 5.34226C16.2905 5.73228 15.7358 5.73228 15.6412 5.34226L15.381 4.2691C15.3472 4.12985 15.2385 4.02113 15.0992 3.98736L14.0261 3.72713C13.636 3.63256 13.636 3.07786 14.0261 2.98329L15.0992 2.72306C15.2385 2.6893 15.3472 2.58058 15.381 2.44133L15.6412 1.36817Z" fill="white"/>
<path fill-rule="evenodd" clip-rule="evenodd" d="M16.0131 1.55857L15.8007 2.43446C15.7158 2.78457 15.4425 3.05792 15.0924 3.14282L14.2165 3.35521L15.0924 3.5676C15.4425 3.6525 15.7158 3.92586 15.8007 4.27597L16.0131 5.15186L16.2255 4.27597C16.3104 3.92586 16.5838 3.6525 16.9339 3.5676L17.8098 3.35521L16.9339 3.14282C16.5838 3.05792 16.3104 2.78457 16.2255 2.43446L16.0131 1.55857ZM16.4382 1.0843C16.3301 0.638566 15.6961 0.638566 15.5881 1.0843L15.2907 2.31077C15.2521 2.46991 15.1278 2.59417 14.9687 2.63276L13.7422 2.93016C13.2965 3.03824 13.2965 3.67218 13.7422 3.78027L14.9687 4.07767C15.1278 4.11626 15.2521 4.24051 15.2907 4.39965L15.5881 5.62612C15.6961 6.07186 16.3301 6.07186 16.4382 5.62612L16.7356 4.39965C16.7742 4.24051 16.8984 4.11626 17.0575 4.07767L18.284 3.78027C18.7298 3.67218 18.7298 3.03824 18.284 2.93016L17.0575 2.63276C16.8984 2.59417 16.7742 2.46991 16.7356 2.31077L16.4382 1.0843Z" fill="white"/>
</svg>
