<svg width="36" height="36" viewBox="0 0 36 36" fill="none" xmlns="http://www.w3.org/2000/svg">
<rect width="36" height="36" rx="18" fill="#2B2B2B"/>
<path d="M11.3073 9.66669H13.8073C14.724 9.66669 15.474 10.4167 15.474 11.3334V13.8334C15.474 14.75 14.724 15.5 13.8073 15.5H11.3073C10.3906 15.5 9.64062 14.75 9.64062 13.8334V11.3334C9.64063 10.4167 10.3906 9.66669 11.3073 9.66669Z" stroke="white" stroke-width="1.5"/>
<path d="M22.1417 20.5H24.6417C25.5583 20.5 26.3083 21.25 26.3083 22.1667V24.6667C26.3083 25.5833 25.5583 26.3333 24.6417 26.3333H22.1417C21.225 26.3333 20.475 25.5833 20.475 24.6667V22.1667C20.475 21.25 21.225 20.5 22.1417 20.5Z" stroke="white" stroke-width="1.5"/>
<path d="M18 12.1667H20.2333C21.775 12.1667 22.4917 14.075 21.3333 15.0917L14.675 20.9167C13.5167 21.925 14.2333 23.8334 15.7667 23.8334H18" stroke="white" stroke-width="1.5" stroke-linecap="round" stroke-linejoin="round"/>
</svg>
